<svg width="1279" height="51" viewBox="0 0 1279 51" fill="none" xmlns="http://www.w3.org/2000/svg">
<path d="M2.20947 15.4997C2.66941 15.3355 -0.0626144 15.242 22 15.2045C30.8132 15.1895 56.1893 15.2026 68 15.2045C79.8107 15.2063 83.5 15.1998 99 15.2144C114.5 15.229 114.5 15.229 114.5 15.229C114.5 15.229 121.057 15.2303 130 15.2436C138.943 15.2569 144.5 15.3747 158 15.2896C171.5 15.2045 175.98 15.3226 187.5 15.3456C197.849 15.3663 203.651 15.3786 214 15.4008C225.911 15.4264 232.589 15.4414 244.5 15.4686C255.239 15.4931 261.261 15.5072 272 15.5327C283.52 15.56 289.98 15.5757 301.5 15.6039C311.849 15.6292 317.651 15.6436 328 15.6694C338.739 15.6962 344.761 15.7115 355.5 15.7387C365.654 15.7644 371.346 15.779 381.5 15.8051C391.263 15.8301 396.737 15.8442 406.5 15.8694C416.068 15.8942 421.432 15.9081 431 15.9329C441.04 15.959 445.419 15.9997 456.709 15.9997C468 15.9997 479 15.9997 485 15.9997C491 15.9997 499.455 17.1601 503.209 15.9997C506.964 14.8394 512.209 11.4997 512.209 11.4997C517.009 9.63306 523.809 7.53306 528.209 6.99973C532.609 6.59973 540.209 5.93308 544.209 4.99975C547.066 4.2856 552.657 3.84808 565 3.6179C570.739 3.51087 577.938 3.44867 587 3.42433C593.076 3.40801 599.99 3.40871 607.863 3.42433C614.859 3.43821 622.613 3.46387 631.209 3.49984C639.891 3.54436 647.616 3.58764 654.5 3.63326C664.247 3.69786 672.306 3.76716 679 3.85134C687.173 3.95411 693.311 4.07907 698 4.24472C711.13 4.70852 712.905 5.49136 716.209 6.99976C719.676 8.59976 722.209 11.1331 724.209 12.9998C727.143 15.6664 731.643 16.4998 736.709 16.4998C741.109 16.4998 745.743 17.6998 751.209 20.4998C757.609 23.6998 760.643 24.4998 767.709 24.4998C773.263 24.4998 777.708 24.8862 784 27.3403C787.83 28.8342 792.344 31.0943 798.209 34.4998C801.943 36.3664 811.209 40.4998 818.209 39.9998C824.709 39.9998 832.709 41.9998 835.709 44.9998C838.848 47.1967 841.422 47.8176 855.5 47.9755C860.422 48.0306 866.75 48.0292 875 48.0187C880.746 48.0114 887.424 47.9998 895.209 47.9998C902.257 48.0155 908.486 48.0572 914 48.1052C921.113 48.1671 927.038 48.2395 932 48.2799C939.432 48.3406 944.703 48.3298 948.567 48.1052C957.072 47.6109 958.765 46.0813 961.709 41.9998C966.709 36.9998 966.709 34.9998 970.709 33.9998C972.709 33.4998 975.003 32.9886 978.209 31.4998C984.188 28.7241 984.709 28.9998 996.709 28.9998C1001.09 28.977 1006.84 28.9741 1014.5 28.9795C1020.03 28.9834 1026.55 28.9916 1034.25 28.9998C1039.44 29.0052 1045.17 29.0107 1051.5 29.0148C1057.31 29.0186 1063.63 29.0212 1070.5 29.0216C1076.41 29.022 1082.74 29.0208 1089.5 29.0173C1096.14 29.0138 1102.5 28.9795 1110.71 28.9998C1118.92 29.02 1121 28.9795 1127 28.9998C1133 29.02 1134 28.9795 1141.5 28.9998C1149 29.02 1153 29.0216 1165.93 28.9998C1178.85 28.9779 1179 28.9795 1190.35 28.9998C1201.71 29.02 1202.56 29.02 1214.78 28.9998C1227 28.9795 1234.5 29.0216 1239.21 28.9998C1243.92 28.9779 1245.71 25.4998 1245.71 25.4998C1250.64 22.1664 1251.61 20.4998 1263.21 20.4998C1263.21 20.4998 1272.5 20.4998 1278.21 20.4998" stroke="#8F5A5B" stroke-width="5"/>
</svg>
