<svg width="2219" height="2478" viewBox="0 0 2219 2478" fill="none" xmlns="http://www.w3.org/2000/svg">
<path d="M2104.71 2476.5C2103.91 2475.03 2104.21 2465.67 2104.21 2453L2103.71 2420C2103.71 2420 2103.58 2413.76 2103.43 2368.5C2103.39 2354.12 2103.34 2335.81 2103.29 2312.5C2103.26 2297.31 2103.24 2280.01 2103.21 2260.29C2103.19 2247.12 2103.18 2232.88 2103.16 2217.48C2103.14 2200.59 2103.13 2182.3 2103.11 2162.5C2103.1 2142.38 2103.09 2120.7 2103.08 2097.33C2103.07 2076.87 2103.06 2055.12 2103.06 2032C2103.05 2016.15 2103.05 1999.66 2103.05 1982.5C2103.05 1965.71 2103.05 1948.27 2103.05 1930.17C2103.05 1912.74 2103.05 1894.69 2103.06 1876C2103.06 1858.09 2103.07 1839.6 2103.07 1820.5C2103.08 1799.72 2103.08 1778.23 2103.09 1756C2103.1 1738.29 2103.11 1720.12 2103.11 1701.46C2103.12 1681.84 2103.13 1661.69 2103.14 1641C2103.15 1621.81 2103.16 1602.15 2103.18 1582C2103.19 1564.37 2103.2 1546.37 2103.21 1528C2103.21 1509.64 2103.21 1491.65 2103.21 1474C2103.21 1459.08 2103.21 1444.42 2103.21 1430C2103.21 1414.2 2103.21 1398.71 2103.21 1383.5C2103.2 1364.9 2103.2 1346.73 2103.2 1329C2103.2 1317.14 2103.2 1305.48 2103.2 1294C2103.2 1280.92 2103.2 1268.09 2103.2 1255.5C2103.19 1236.8 2103.19 1218.64 2103.19 1201C2103.19 1181.36 2103.19 1162.37 2103.18 1144C2103.18 1126.61 2103.18 1109.78 2103.18 1093.5C2103.18 1072.98 2103.18 1053.32 2103.17 1034.5C2103.17 1014.76 2103.17 995.938 2103.17 978C2103.17 966.332 2103.17 955.037 2103.17 944.106C2103.18 931.732 2103.18 919.823 2103.18 908.367C2103.18 885.674 2103.19 864.756 2103.2 845.5C2103.21 823.768 2103.22 804.154 2103.24 786.5C2103.25 771.847 2103.27 758.544 2103.29 746.5C2103.33 726.252 2103.38 709.563 2103.44 696C2103.59 660.396 2103.84 646.336 2104.21 646C2107.29 642.889 2106.85 634.304 2104.21 625V616M2215.71 2374.5C2215.93 2378.03 2215.99 2381.18 2212.71 2383.5C2209.21 2384 2203.68 2383.93 2202.21 2387C2200.61 2389.13 2198.71 2393.6 2198.71 2394C2198.71 2394.4 2196.18 2397.53 2194.71 2399C2193.24 2400.47 2191.11 2403.57 2190.71 2406.5C2190.18 2409.97 2190.34 2411.9 2188.21 2413.5C2185.14 2416.03 2184.61 2416 2154.21 2416C2126.88 2416 2115.31 2416.27 2111.71 2418C2105.99 2420.32 2102.34 2421.62 2089.71 2424C2074.29 2426.81 2066.67 2430.06 2054.71 2438.27C2051.04 2441.12 2048.82 2442.15 2044.71 2443.5C2044.71 2443.5 2037.17 2444 2001.71 2443.5C1966.25 2443 1983.85 2443.75 1958.71 2443.5C1933.57 2443.25 1939.67 2444 1915.71 2443.5C1891.75 2443 1897.01 2444 1872.71 2443.5C1848.41 2443 1843.69 2444 1818.6 2443.75C1793.52 2443.5 1790.43 2444 1764.5 2444C1738.57 2444 1737.48 2444.63 1708.71 2444C1679.94 2443.37 1673.21 2438.5 1673.21 2438.5C1673.21 2438.5 1661.51 2432.77 1654.71 2430.5C1650.53 2429.22 1648.14 2428.7 1643.71 2428.5C1643.71 2428.5 1636.5 2428.5 1598.21 2428.5C1559.92 2428.5 1583.68 2428.5 1552.71 2428.5C1521.74 2428.5 1532.39 2428.5 1497.5 2428.36C1462.61 2428.22 1456.66 2428.17 1447.21 2430C1439.61 2431.47 1428.58 2435.13 1422.71 2437C1415.91 2439.13 1405.94 2440.2 1396.21 2441C1392.31 2441.32 1375.79 2441.59 1353 2441.8C1341.08 2441.92 1327.45 2442.01 1313 2442.08C1302 2442.13 1290.54 2442.18 1279 2442.21C1264.86 2442.24 1250.61 2442.25 1237 2442.24C1221.48 2442.23 1206.78 2442.19 1194 2442.11C1174.93 2441.99 1160.12 2441.79 1153.21 2441.5C1138.28 2440.83 1109.74 2437.1 1107.21 2435.5C1106.54 2435.1 1095.11 2432.83 1084.71 2431.5C1074.18 2430.17 1063.91 2427.8 1060.71 2427C1057.38 2426.33 1047.11 2424.7 1038.71 2423.5C1030.31 2422.17 1024.18 2422.07 1020.71 2421C1017.24 2419.93 1010.21 2418.5 1008.21 2418C1006.61 2418 996.243 2416.07 991.71 2415C983.227 2413 977.705 2411.94 972.5 2411.39C963.797 2410.48 955.984 2411 936.71 2411C920.636 2411 910.854 2410.85 902.5 2409.81C892.836 2408.61 885.082 2406.22 871.71 2401.5C862.598 2398.28 851.331 2394.54 840 2391.15C829.776 2388.1 819.501 2385.33 810.71 2383.5C796.043 2380.43 782.276 2376.53 773.21 2372C769.61 2370.27 765.21 2369 764.21 2368.5C762.343 2368.5 740.31 2359.2 724.71 2352C705.91 2343.2 703.71 2343.5 700.21 2341.5C697.996 2339.62 691.075 2336.68 688.21 2336.5C685.344 2336.32 681.21 2333.5 679.21 2332.5C676.943 2332.5 671.21 2327.43 659.21 2320.5C654.143 2317.57 646.643 2313.7 643.71 2312.5C640.776 2311.3 633.643 2307.6 626.71 2304C619.776 2300.4 607.776 2293.8 598.576 2289C589.376 2284.33 577.943 2278.37 574.21 2276.5C569.287 2273.97 561.971 2269.34 554.5 2264.06C547.403 2259.04 540.166 2253.44 534.71 2248.5C531.891 2245.97 522.526 2239.57 511 2232.15C503.665 2227.43 495.455 2222.3 487.5 2217.48C478.982 2212.32 470.756 2207.53 464.21 2204C458.476 2200.93 450.376 2196.53 447.71 2194.67C444.91 2192.8 433.876 2185.83 427.21 2182.5C422.06 2179.83 415.691 2176.12 410 2172.56C403.167 2168.29 397.31 2164.25 395.71 2162.5C394.243 2160.9 381.943 2153.07 370.21 2146C365.943 2143.47 360.01 2139.7 355.21 2136.5C350.959 2133.57 345.633 2130.4 337.5 2126.01C333.086 2123.63 327.845 2120.89 321.5 2117.64C315.426 2114.52 308.34 2110.94 300 2106.75C294.34 2103.9 288.102 2100.78 281.21 2097.33C274.21 2093.85 267.603 2090.51 261.5 2087.4C253.784 2083.46 246.874 2079.87 241 2076.78C228.243 2070.06 220.367 2065.66 219.71 2065C219.31 2064.6 216.576 2063.57 214.71 2062.5C212.843 2061.43 208.543 2058.5 205.21 2056.5C199.582 2053.12 193.931 2049.8 189 2046.95C180.496 2042.03 174.132 2038.5 173.71 2038.5C173.31 2038.5 168.676 2035.33 163.21 2032C157.61 2028.67 153.567 2027.5 152.5 2027.5C151.567 2027.5 148.61 2025.17 148.21 2024.5C147.81 2023.97 143.643 2022.73 138.71 2021C133.776 2019.4 129.01 2017.53 128.21 2017C127.543 2016.47 122.51 2014.6 117.71 2013C112.91 2011.4 108.176 2009.67 106.71 2009C102.518 2007.12 95.4102 2004.36 87.5 2001.49C81.1526 1999.18 74.2885 1996.79 68 1994.73C60.4379 1992.24 53.7081 1990.22 49.7098 1989.33C44.9098 1988.13 35.0765 1987.53 27.2098 1987C24.1879 1986.8 21.1561 1986.74 18.5 1986.69C14.2416 1986.62 10.9487 1986.57 10.2096 1986C9.77343 1985.7 3.96789 1983.92 3.70965 1977.5C3.45429 1971.15 3.28275 1960.28 3.17239 1941.82C3.11173 1931.67 3.06955 1919.23 3.04211 1904C3.02764 1895.97 3.01726 1887.16 3.01043 1877.5C3.00412 1868.58 3.00084 1858.93 3.00014 1848.5C2.99932 1836.13 3.00213 1822.67 3.00785 1808C3.01237 1796.43 3.0187 1784.11 3.02649 1771C3.03281 1760.36 3.04009 1749.21 3.04814 1737.5C3.05476 1727.88 3.00785 1719.58 3.06945 1707.5C3.13106 1695.42 3.07934 1693.99 3.08451 1687C3.09005 1679.52 3.00785 1673.92 3.10157 1664C3.19528 1654.08 3.00785 1652.01 3.12003 1639C3.23221 1625.99 3.00785 1630.85 3.14 1611.5C3.27215 1592.15 3.20984 1600.41 3.15592 1589C3.10201 1577.59 3.44422 1573.31 3.17239 1565C2.90056 1556.69 3.44422 1554 3.19146 1536C2.93871 1518 3.44422 1528.02 3.20984 1506.5C2.97547 1484.98 3.44422 1498.32 3.28797 1468.52C3.13172 1438.71 3.06945 1459.34 3.36609 1430.53C3.66273 1401.73 3.36609 1420.73 3.44422 1392.55C3.52234 1364.37 3.44422 1383.97 3.52234 1354.56C3.60047 1325.15 3.36609 1344.62 3.60047 1316.58C3.83484 1288.54 3.99109 1307.49 3.67859 1278.59C3.36609 1249.69 3.83484 1270 3.75672 1240.61C3.67859 1211.22 3.99109 1233.62 3.83484 1202.62C3.67859 1171.63 3.83484 1190.55 3.91297 1164.64C3.99109 1138.73 3.91297 1153.05 3.99109 1126.66C4.06922 1100.26 4.22547 1117.41 4.06922 1088.67C3.91297 1059.93 4.22547 1079.18 4.14734 1050.69C4.06922 1022.2 4.45984 1039.45 4.22547 1012.7C3.99109 985.954 4.45984 1004.93 4.30359 974.719C4.14734 944.512 4.45984 960.004 4.38172 936.734C4.30359 913.464 4.92859 924.364 4.45984 898.75C3.99109 873.136 4.30359 888.353 4.53797 860.766C4.77234 833.178 4.92859 850.114 4.61609 822.781C4.30359 795.448 5.00672 814.846 4.69422 784.797C4.38172 754.748 4.92859 775.493 4.77234 746.812C4.61609 718.132 4.61609 737.997 4.85047 708.828C5.08484 679.659 5.00672 699.016 4.92859 670.844C4.85047 642.672 4.92859 657.064 5.00672 632.859C5.08484 608.654 5.31922 619.197 5.08484 594.875C4.85047 570.553 5.55359 585.042 5.16297 556.891C4.77234 528.739 5.55359 545.318 5.24109 518.906C4.92859 492.494 5.55359 511.534 5.31922 480.922C5.08484 450.309 4.92859 471.811 5.39734 442.938C5.86609 414.064 4.92859 432.087 5.47547 404.953C6.02234 377.819 5.47547 389.593 5.55359 366.969C5.63172 344.345 5.70984 356.302 5.63172 328.984C5.55359 301.667 5.47547 317.38 5.70984 291C5.94422 264.62 5.47547 282.131 5.70984 259.812C5.94422 237.494 5.70984 249.574 5.70984 228.625C5.70984 207.676 5.70984 218.241 5.70984 197.438C5.70984 176.634 5.70984 189.112 5.70984 166.25C5.70984 143.388 5.70984 157.534 5.70984 135.062C5.70984 112.591 5.70984 125.467 5.70984 103.875C5.70984 82.2833 5.70984 97.8057 5.70984 72.6875C5.70984 47.5693 5.70984 66.4728 5.70984 41.5C5.70984 16.5272 5.70984 30 5.70984 16C5.70984 2 5.70984 0 5.70984 0M2106.18 576C2109.45 577.789 2108.99 558.799 2104.71 552.816C2104.71 552.816 2104.71 562.242 2104.71 536.812C2104.71 511.383 2104.71 526.284 2104.71 503.125C2104.71 479.966 2104.71 492.858 2104.71 469.438C2104.71 446.017 2104.71 457.913 2104.71 435.75C2104.71 413.587 2104.71 420.942 2104.71 402.062C2104.71 383.183 2104.71 387.01 2104.71 368.375C2104.71 349.74 2104.71 357.129 2104.71 334.688C2104.71 312.246 2104.71 318.133 2104.71 301C2104.71 283.867 2104.71 285.214 2104.71 267.125C2104.71 249.036 2104.71 253.307 2104.71 233.25C2104.71 213.193 2104.71 223.933 2104.71 199.375C2104.71 174.817 2104.71 187.975 2104.71 165.5C2104.71 143.025 2104.71 154.55 2104.71 131.625C2104.71 108.7 2104.71 119.605 2104.71 97.75C2104.71 75.8955 2104.71 91.2033 2104.71 63.875C2104.71 36.5467 2104.71 30 2104.71 30C2104.92 25.0763 2105.45 22.3687 2113.71 18.5C2105.83 20.5865 2101.72 20.6225 2093.21 20.5C2093.21 20.5 2072.67 20.5 2054.15 20.5C2035.63 20.5 2036 20.5 2015.08 20.5C1994.17 20.5 1998.14 20.5 1976.02 20.5C1953.9 20.5 1961.47 20.5 1936.96 20.5C1912.45 20.5 1918.88 20.5 1897.9 20.5C1876.91 20.5 1881.03 20.5 1858.83 20.5C1836.64 20.5 1837.26 20.5 1819.77 20.5C1802.28 20.5 1795.86 20.5 1780.71 20.5C1765.56 20.5 1748 20.4825 1729.5 20.4668C1715.13 20.4546 1699.94 20.4396 1684 20.4221C1667.74 20.4043 1650.71 20.3838 1633 20.3611C1622.24 20.3473 1611.24 20.3326 1600 20.3171C1583.79 20.2948 1567.11 20.2707 1550 20.2451C1537.55 20.2265 1524.87 20.2072 1512 20.187C1500.32 20.1687 1488.49 20.1498 1476.5 20.1304C1464.47 20.1109 1452.3 20.0909 1440 20.0703C1421.77 20.0398 1403.25 20.008 1384.5 19.9753C1371.77 19.9531 1358.93 19.9305 1346 19.9075C1330.45 19.8797 1314.77 19.8514 1299 19.8225C1286.72 19.8 1274.38 19.7772 1262 19.7542C1243.08 19.7189 1224.06 19.6829 1205 19.6465C1192.02 19.6217 1179.01 19.5967 1166 19.5715C1152.83 19.546 1139.66 19.5204 1126.5 19.4946C1114.32 19.4708 1102.15 19.4467 1090 19.4226C1071.43 19.3858 1052.91 19.3489 1034.5 19.3118C1020.43 19.2834 1006.42 19.2549 992.5 19.2266C974.173 19.1892 955.99 19.1519 938 19.1147C924.721 19.0873 911.548 19.0599 898.5 19.0327C883.149 19.0007 867.972 18.969 853 18.9375C840.688 18.9116 828.515 18.8858 816.5 18.8604C803.13 18.832 789.955 18.8038 777 18.7761C765.315 18.7511 753.809 18.7265 742.5 18.7021C726.769 18.6683 720.475 18 696.5 18.6028C672.525 19.2056 679.31 18.4312 660.5 18.5244C641.69 18.6177 638.618 18 618 18.4312C597.382 18.8623 601.238 18.4312 580.5 18.3484C559.762 18.2656 553.449 18 535.5 18.2483C517.551 18.4966 513.23 18.4312 494.5 18.1562C475.77 17.8813 464.021 18.2483 425.71 18C387.399 17.7517 407.715 18 379.272 18C350.83 18 358.979 18.2483 332.835 18C306.691 17.7517 313.555 18 286.397 18C259.239 18 265.293 18.2483 239.96 18C214.627 17.7517 220.816 18.2483 193.522 18C166.229 17.7517 173.026 18.2483 147.085 18C121.144 17.7517 129.022 18.2483 100.647 18C72.2727 17.7517 61.7279 18 54.2098 18C46.6917 18 41.2098 18.2667 29.2098 30C22.0098 37.0667 15.7765 41.9 12.0432 41.5" stroke="#3C3A3D" stroke-width="5"/>
<path d="M1997.21 2149.5C1997.21 2149.5 1997.21 2130 1996.96 2089.25C1996.71 2048.5 1996.71 2048.5 1996.71 2029C1996.71 2009.5 1996.71 2008.5 1996.71 1986C1996.71 1963.5 1996.71 1958 1996.71 1940.5C1996.71 1923 1996.71 1917.74 1996.71 1904.5C1996.71 1891.02 1996.71 1876.22 1996.71 1860C1996.71 1848.85 1996.71 1837.03 1996.71 1824.5C1996.71 1811.74 1996.71 1798.25 1996.71 1784C1996.71 1770.08 1996.71 1755.42 1996.71 1740C1996.71 1726.13 1996.71 1711.63 1996.71 1696.5C1996.71 1680.71 1996.71 1664.22 1996.71 1647C1996.71 1628.82 1996.71 1609.83 1996.71 1590C1996.71 1570.18 1996.71 1549.53 1996.71 1528C1996.71 1510.73 1996.71 1492.91 1996.71 1474.5C1996.71 1461.14 1996.71 1447.48 1996.71 1433.5C1996.71 1416.15 1996.71 1398.32 1996.71 1380C1996.71 1364.2 1996.71 1348.04 1996.71 1331.5C1996.71 1316.96 1996.71 1302.13 1996.71 1287C1996.71 1275.67 1996.71 1264.17 1996.71 1252.5C1996.71 1239.38 1996.71 1226.05 1996.71 1212.5C1996.71 1190.73 1996.71 1168.4 1996.71 1145.5C1996.71 1130.58 1996.71 1115.41 1996.71 1100C1996.71 1079.05 1996.71 1058.55 1996.71 1038.5C1996.71 1020.48 1996.72 1002.81 1996.72 985.5C1996.72 964.835 1996.73 944.672 1996.73 925C1996.73 907.446 1996.74 890.282 1996.74 873.5C1996.75 859.399 1996.75 845.567 1996.76 832C1996.76 819.614 1996.77 807.449 1996.77 795.5C1996.78 780.843 1996.79 766.513 1996.79 752.5C1996.8 742.506 1996.91 738.5 1996.81 723C1996.71 707.5 1996.82 700.109 1996.83 689C1996.84 670.558 1996.71 650.5 1997.23 634C1997.74 617.5 1996.9 596 1996.9 596C1996.9 596 1996.71 572.5 1996.94 555.375C1997.17 538.25 1996.71 530 1996.98 514.75C1997.25 499.5 1996.77 503.125 1997.01 484.562C1997.25 466 1997.36 472.25 1997.04 454.375C1996.71 436.5 1997.42 438.375 1997.07 424.188C1996.71 410 1997.09 394 1997.09 394C1997.11 376.886 1997.59 361 1997.15 346C1996.71 331 1997.18 319.828 1997.19 308C1997.2 294.256 1997.22 281.618 1997.23 270C1997.24 252.218 1997.25 236.822 1997.25 223.5C1997.25 205.727 1997.24 191.642 1997.2 180.5C1997.1 147.008 1996.81 140.102 1996.21 139.5C1994.78 137.967 1990.55 137.668 1958 137.792C1948.1 137.83 1932.92 137.865 1919.71 138C1906.5 138.135 1891.91 137.77 1883.7 138.135C1875.5 138.5 1866 138.285 1851 138.21C1836 138.135 1832.38 138.368 1818.69 138.251C1805 138.135 1801.75 138.451 1786.38 138.293C1771 138.135 1758.5 138.501 1742.5 138.318C1726.5 138.135 1716.42 138.324 1703 138.323C1689.85 138.322 1676.49 138.319 1663 138.314C1650.59 138.309 1638.07 138.302 1625.5 138.293C1611.03 138.283 1596.49 138.27 1582 138.254C1567.6 138.238 1553.23 138.219 1539 138.198C1526.37 138.179 1516 138.214 1501.5 138.135C1487 138.056 1474 138.135 1464 138.056C1454 137.977 1444.5 138.083 1425.5 137.955C1406.5 137.827 1398.96 137.873 1386.5 137.827M2057.21 2065.5C2054.21 2069 2057.59 2068 2027.21 2068C1996.83 2068 2007 2068 1979.71 2068C1952.42 2068 1940.71 2065.33 1940.71 2065.33C1940.71 2065.33 1931.92 2062 1920.71 2059C1909.5 2056 1904.92 2054.07 1894.21 2048.5C1883.5 2042.93 1870.21 2034.5 1870.21 2034.5C1870.21 2034.5 1850.64 2021.6 1847.71 2020C1839.71 2015.87 1824.74 2003.3 1820.21 1998.5C1820.21 1998.5 1808 1997.5 1788.52 1996.5C1769.04 1995.5 1772.44 1997.99 1764.71 1999C1751.11 2000.73 1749.81 2000.43 1742.21 1997.5C1737.68 1995.9 1730.64 1990.13 1725.71 1986C1720.91 1982 1713.41 1976.1 1708.21 1972.5C1708.21 1972.5 1697.92 1964.5 1689.71 1958C1681.5 1951.5 1677.74 1950.39 1671.71 1944.5C1665.68 1938.61 1657.83 1934.01 1650.71 1930C1643.59 1925.99 1637.47 1922.61 1623.71 1915.5C1609.95 1908.39 1609.58 1909.78 1594.71 1904.5C1579.84 1899.22 1581.39 1899.84 1572.71 1897C1564.03 1894.16 1555.47 1893.05 1542.71 1891.5C1529.95 1889.95 1530.36 1891.5 1520.21 1888C1510.06 1884.5 1510.28 1884.12 1495.71 1880.5C1481.14 1876.88 1486.3 1877.43 1472.71 1876C1459.12 1874.57 1479.08 1877.25 1451.71 1872.5C1424.34 1867.75 1442.78 1869.62 1423.71 1868C1404.64 1866.38 1403.68 1864 1400.21 1862.67C1398.34 1861.87 1386.34 1860.4 1384.21 1860C1377 1858.81 1367.22 1854.6 1358 1849.42C1349.66 1844.73 1341.78 1839.25 1336.71 1834.5C1334.84 1832.77 1329.51 1828.23 1324.71 1824.5C1320.04 1820.77 1311.38 1814.37 1306.71 1810.5C1302.04 1806.5 1297.48 1802.07 1295.21 1801C1295.21 1801 1295.21 1801 1283.21 1792.5L1271.21 1784C1271.21 1784 1265.29 1779.71 1259.18 1775.83C1255.76 1773.66 1252.34 1771.69 1249.71 1770.5C1242.37 1767.18 1236.94 1764.63 1233.21 1762.5C1229.44 1760.27 1224.52 1758.37 1215.96 1753.51C1207.41 1748.65 1206.31 1748.86 1200.21 1746C1195.73 1743.92 1189.56 1742.92 1182.21 1740C1174.02 1736.75 1167.74 1732.63 1165.21 1732C1162.68 1731.47 1150.31 1730.93 1140.71 1730C1119.91 1728.13 1123.68 1728.9 1098.21 1724.5C1075.14 1720.5 1074.08 1719.73 1056.21 1714C1049.28 1711.87 1039.41 1709.8 1034.21 1709C1029.14 1708.33 1020.18 1706 1014.71 1705.33C995.11 1702.4 978.21 1699.43 974.21 1696.5C971.943 1694.77 958.643 1690.13 955.71 1690L944.21 1686.67C937.01 1684.53 929.943 1680.87 926.21 1679C921.943 1676.73 909.377 1676.23 886.71 1674.5C876.215 1673.69 866.334 1672.76 858 1671.82C845.688 1670.43 836.754 1669.03 834.21 1668C832.077 1667.2 827.977 1666.5 825.71 1666.5C820.243 1666.5 807.41 1661.37 794.21 1655.5C788.477 1652.97 773.11 1648.13 760.71 1644C748.31 1639.73 735.943 1635.1 732.21 1633.5C728.61 1631.77 721.11 1628.5 716.71 1626.5C704.043 1620.77 698.343 1618.13 692.21 1614L681.21 1606C678.677 1602.93 669.543 1598 658.21 1592C645.41 1585.33 637.643 1578.67 631.643 1572C625.376 1565.2 618.943 1562.3 605.21 1559.5C595.077 1557.37 591.377 1556.5 588.71 1552.5C588.71 1552.5 585.306 1549.56 575.96 1540.5C566.614 1531.44 563.21 1528.5 563.21 1528.5C563.21 1528.5 562.848 1504 563.335 1487.25C563.822 1470.5 563.71 1463.5 563.46 1446C563.21 1428.5 563.348 1425.5 563.585 1404.75C563.822 1384 564.21 1384 563.71 1363.5C563.21 1343 563.96 1341.25 563.585 1321.38C563.21 1301.5 563.71 1298 563.46 1279.25C563.21 1260.5 562.848 1256.75 563.335 1237.13C563.822 1217.5 563.21 1205.5 563.21 1195C563.21 1184.5 563.371 1178 563.29 1158C563.21 1138 563.56 1127.5 563.385 1114.5C563.21 1101.5 563.744 1087 563.477 1072.5C563.21 1058 563.303 1049 563.562 1033.5C563.822 1018 564.094 1007 563.652 992.5C563.21 978 564.265 968 563.738 953.5C563.21 939 563.793 927.919 563.822 915C563.848 902.889 563.875 890.714 563.901 878.5C563.934 863.374 563.967 848.189 564 833C564.028 820.327 564.055 807.65 564.083 795C564.115 779.777 564.148 764.592 564.181 749.5C564.212 734.898 564.243 720.381 564.274 706C564.314 687.235 564.354 668.699 564.392 650.5C564.427 633.858 564.462 617.498 564.495 601.5C564.534 582.97 564.571 564.928 564.607 547.5C564.643 530.005 564.678 513.128 564.71 497C564.737 483.384 564.76 470.22 564.779 457.5C564.803 441.654 564.821 426.494 564.835 412C564.848 397.302 564.857 383.289 564.861 369.938C564.867 352.894 565.21 343.5 564.861 322C564.512 300.5 563.901 289 564.821 265.5C565.74 242 564.789 238.935 564.774 227.5C564.757 215.324 564.392 208.5 564.733 195C565.074 181.5 564.46 178.415 564.181 164.958C563.901 151.5 565.21 137 565.21 137C565.21 137 579.986 136.693 605 136.593C617.95 136.542 633.712 136.499 651.766 136.466C665.439 136.44 680.426 136.42 696.5 136.405C713.24 136.389 731.158 136.378 750 136.373C766.05 136.369 782.769 136.368 800 136.371C815.937 136.374 832.313 136.38 849 136.389C863.297 136.397 877.823 136.407 892.5 136.419C908.029 136.432 923.727 136.448 939.5 136.466C954.459 136.482 969.485 136.502 984.5 136.523C1001.89 136.547 1019.27 136.575 1036.5 136.605C1053.85 136.635 1071.06 136.668 1088 136.704C1108.64 136.748 1128.88 136.796 1148.5 136.847C1161.64 136.882 1174.49 136.918 1187 136.956C1202.05 137.002 1216.59 137.05 1230.5 137.1C1244.69 137.152 1258.23 137.206 1271 137.262C1288.06 137.337 1299 137.262 1317.71 137.5C1336.42 137.738 1336.71 138.707 1352.1 138.5C1367.5 138.293 1386.5 139.5 1386.5 139.5" stroke="#434345" stroke-width="5"/>
<path d="M657.209 1522.5C657.669 1522.34 654.937 1522.24 677 1522.2C685.813 1522.19 711.189 1522.2 723 1522.2C734.811 1522.21 738.5 1522.2 754 1522.21C769.5 1522.23 769.5 1522.23 769.5 1522.23C769.5 1522.23 776.057 1522.23 785 1522.24C793.943 1522.26 799.5 1522.37 813 1522.29C826.5 1522.2 830.98 1522.32 842.5 1522.35C852.849 1522.37 858.651 1522.38 869 1522.4C880.911 1522.43 887.589 1522.44 899.5 1522.47C910.239 1522.49 916.261 1522.51 927 1522.53C938.52 1522.56 944.98 1522.58 956.5 1522.6C966.849 1522.63 972.651 1522.64 983 1522.67C993.739 1522.7 999.761 1522.71 1010.5 1522.74C1020.65 1522.76 1026.35 1522.78 1036.5 1522.81C1046.26 1522.83 1051.74 1522.84 1061.5 1522.87C1071.07 1522.89 1076.43 1522.91 1086 1522.93C1096.04 1522.96 1100.42 1523 1111.71 1523C1123 1523 1134 1523 1140 1523C1146 1523 1154.46 1524.16 1158.21 1523C1161.96 1521.84 1167.21 1518.5 1167.21 1518.5C1172.01 1516.63 1178.81 1514.53 1183.21 1514C1187.61 1513.6 1195.21 1512.93 1199.21 1512C1202.07 1511.29 1207.66 1510.85 1220 1510.62C1225.74 1510.51 1232.94 1510.45 1242 1510.42C1248.08 1510.41 1254.99 1510.41 1262.86 1510.42C1269.86 1510.44 1277.61 1510.46 1286.21 1510.5C1294.89 1510.54 1302.62 1510.59 1309.5 1510.63C1319.25 1510.7 1327.31 1510.77 1334 1510.85C1342.17 1510.95 1348.31 1511.08 1353 1511.24C1366.13 1511.71 1367.91 1512.49 1371.21 1514C1374.68 1515.6 1377.21 1518.13 1379.21 1520C1382.14 1522.67 1386.64 1523.5 1391.71 1523.5C1396.11 1523.5 1400.74 1524.7 1406.21 1527.5C1412.61 1530.7 1415.64 1531.5 1422.71 1531.5C1428.26 1531.5 1432.71 1531.89 1439 1534.34C1442.83 1535.83 1447.34 1538.09 1453.21 1541.5C1456.94 1543.37 1466.21 1547.5 1473.21 1547C1479.71 1547 1487.71 1549 1490.71 1552C1493.85 1554.2 1496.42 1554.82 1510.5 1554.98C1515.42 1555.03 1521.75 1555.03 1530 1555.02C1535.75 1555.01 1542.42 1555 1550.21 1555C1557.26 1555.02 1563.49 1555.06 1569 1555.11C1576.11 1555.17 1582.04 1555.24 1587 1555.28C1594.43 1555.34 1599.7 1555.33 1603.57 1555.11C1612.07 1554.61 1613.77 1553.08 1616.71 1549C1621.71 1544 1621.71 1542 1625.71 1541C1627.71 1540.5 1630 1539.99 1633.21 1538.5C1639.19 1535.72 1639.71 1536 1651.71 1536C1656.09 1535.98 1661.84 1535.97 1669.5 1535.98C1675.03 1535.98 1681.55 1535.99 1689.25 1536C1694.44 1536.01 1700.17 1536.01 1706.5 1536.01C1712.31 1536.02 1718.63 1536.02 1725.5 1536.02C1731.41 1536.02 1737.74 1536.02 1744.5 1536.02C1751.14 1536.01 1757.5 1535.98 1765.71 1536C1773.92 1536.02 1776 1535.98 1782 1536C1788 1536.02 1789 1535.98 1796.5 1536C1804 1536.02 1808 1536.02 1820.93 1536C1833.85 1535.98 1834 1535.98 1845.35 1536C1856.71 1536.02 1857.56 1536.02 1869.78 1536C1882 1535.98 1889.5 1536.02 1894.21 1536C1898.92 1535.98 1900.71 1532.5 1900.71 1532.5C1905.64 1529.17 1906.61 1527.5 1918.21 1527.5C1918.21 1527.5 1927.5 1527.5 1933.21 1527.5" stroke="#8F5A5B" stroke-width="5"/>
</svg>
